<?xml version="1.0" encoding="utf-8"?>
<!-- Generator: Adobe Illustrator 16.0.0, SVG Export Plug-In . SVG Version: 6.00 Build 0)  -->
<!DOCTYPE svg PUBLIC "-//W3C//DTD SVG 1.1//EN" "http://www.w3.org/Graphics/SVG/1.1/DTD/svg11.dtd">
<svg version="1.1" id="Capa_1" xmlns="http://www.w3.org/2000/svg" xmlns:xlink="http://www.w3.org/1999/xlink" x="0px" y="0px"
	 width="412px" height="60px" viewBox="0 0 412 60" enable-background="new 0 0 412 60" xml:space="preserve">
<g>
	<g>
		<g>
			<defs>
				<polygon id="SVGID_1_" points="35.454,30.416 25.303,9.891 15.151,30.416 				"/>
			</defs>
			<clipPath id="SVGID_2_">
				<use xlink:href="#SVGID_1_"  overflow="visible"/>
			</clipPath>
			<g clip-path="url(#SVGID_2_)">
				
					<rect x="25.907" y="8.538" transform="matrix(0.7071 0.7071 -0.7071 0.7071 28.122 -14.6876)" fill="#C1272D" width="11.763" height="36.124"/>
			</g>
			<path clip-path="url(#SVGID_2_)" fill="#2362AD" d="M14.232,31.593c0,0,4.729-6.449,16.192-13.672L25.353,7.632L14.232,31.593z"
				/>
			<path clip-path="url(#SVGID_2_)" fill="#FCEE21" d="M14.232,30.904c0,0,6.333-9.057,15.505-13.413l1.29,2.837
				c0,0-3.955,3.01-5.675,10.69L14.232,30.904z"/>
		</g>
		<path d="M37.34,34.3H13.265L7.884,45.505H3.5L23.583,4.676c0.369-0.739,0.943-1.109,1.72-1.109s1.351,0.37,1.72,1.109
			l20.192,40.829h-4.271L37.34,34.3z M35.454,30.416L25.303,9.891L15.151,30.416H35.454z"/>
	</g>
	<path d="M51.478,45.505V2.29h3.884v43.215H51.478z"/>
	<path d="M74.824,15.438c4.771,0,8.487,1.332,11.15,3.994c2.663,2.663,3.994,6.399,3.994,11.206c0,4.771-1.331,8.488-3.994,11.15
		c-2.663,2.664-6.379,3.994-11.15,3.994c-4.809,0-8.543-1.33-11.206-3.994c-2.663-2.662-3.994-6.379-3.994-11.15V2.346h3.883v17.253
		c1.295-1.331,2.894-2.357,4.799-3.079C70.211,15.799,72.384,15.438,74.824,15.438z M74.824,41.956c3.661,0,6.463-0.971,8.405-2.914
		c1.94-1.941,2.911-4.742,2.911-8.404c0-3.697-0.971-6.509-2.911-8.432c-1.942-1.923-4.744-2.885-8.405-2.885
		c-3.699,0-6.509,0.962-8.432,2.885s-2.886,4.734-2.886,8.432c0,3.662,0.963,6.463,2.886,8.404
		C68.315,40.985,71.125,41.956,74.824,41.956z"/>
	<path d="M109.433,15.382c4.807,0,8.541,1.342,11.204,4.022c2.663,2.682,3.994,6.407,3.994,11.179v0.055
		c0,0.555-0.193,1.018-0.581,1.387c-0.389,0.371-0.842,0.556-1.359,0.556H98.227c0.331,3.032,1.442,5.345,3.328,6.935
		s4.492,2.385,7.821,2.385c3.586,0,6.343-0.924,8.266-2.773l2.718,2.773c-2.7,2.59-6.36,3.883-10.983,3.883
		c-4.77,0-8.487-1.33-11.149-3.994c-2.663-2.662-3.995-6.379-3.995-11.15v-0.055c0-4.771,1.332-8.497,3.995-11.179
		C100.889,16.724,104.624,15.382,109.433,15.382z M120.693,28.696c-0.334-3.069-1.452-5.408-3.356-7.018
		c-1.905-1.608-4.541-2.413-7.904-2.413c-3.366,0-6.002,0.805-7.905,2.413c-1.905,1.609-3.007,3.948-3.301,7.018H120.693z"/>
	<path d="M132.611,19.46c2.478-2.682,5.937-4.022,10.375-4.022v3.884c-3.329,0-5.863,0.971-7.601,2.912
		c-1.739,1.941-2.608,4.743-2.608,8.404v14.867h-3.883V30.638C128.895,25.867,130.134,22.142,132.611,19.46z"/>
	<path d="M167.387,19.654h-8.154v25.851h-3.884V19.654h-8.1v-3.884h8.1V2.29h3.884v13.48h8.154V19.654z"/>
	<path d="M186.851,45.782c-4.809,0-8.543-1.33-11.206-3.994c-2.663-2.662-3.994-6.397-3.994-11.205
		c0-4.771,1.331-8.497,3.994-11.179c2.663-2.681,6.397-4.022,11.206-4.022c4.807,0,8.543,1.342,11.206,4.022
		c2.663,2.682,3.995,6.407,3.995,11.179c0,4.808-1.332,8.543-3.995,11.205C195.394,44.452,191.657,45.782,186.851,45.782z
		 M186.851,19.266c-3.697,0-6.509,0.962-8.432,2.885c-1.924,1.923-2.886,4.734-2.886,8.433s0.962,6.51,2.886,8.432
		c1.923,1.924,4.734,2.885,8.432,2.885c3.698,0,6.509-0.961,8.433-2.885c1.923-1.922,2.885-4.733,2.885-8.432
		s-0.962-6.51-2.885-8.433C193.359,20.228,190.549,19.266,186.851,19.266z"/>
	<path d="M254.826,34.3h-24.074l-5.383,11.205h-4.381l20.08-40.829c0.369-0.739,0.943-1.109,1.721-1.109
		c0.775,0,1.35,0.37,1.719,1.109l20.191,40.829h-4.271L254.826,34.3z M252.939,30.416l-10.15-20.525l-10.152,20.525H252.939z"/>
	<path d="M297.031,45.505h-3.883V30.638c0-3.661-0.813-6.463-2.441-8.404c-1.627-1.941-3.994-2.912-7.1-2.912
		s-5.475,0.971-7.102,2.912s-2.439,4.743-2.439,8.404v14.867h-3.883V30.638c0-4.771,1.172-8.496,3.521-11.178
		c2.348-2.682,5.65-4.022,9.902-4.022c4.217,0,7.506,1.341,9.875,4.022c2.365,2.682,3.549,6.407,3.549,11.178V45.505z"/>
	<path d="M317.715,15.382c4.807,0,8.543,1.342,11.205,4.022c2.664,2.682,3.994,6.407,3.994,11.179v11.982
		c0,4.771-1.34,8.488-4.021,11.15s-6.406,3.994-11.178,3.994v-3.883c3.66,0,6.451-0.963,8.377-2.885
		c1.92-1.924,2.883-4.715,2.883-8.377v-0.887c-2.662,2.736-6.416,4.104-11.26,4.104c-4.809,0-8.545-1.33-11.207-3.994
		c-2.662-2.662-3.994-6.397-3.994-11.205c0-4.771,1.332-8.497,3.994-11.179C309.17,16.724,312.906,15.382,317.715,15.382z
		 M329.031,30.583c0-3.698-0.963-6.51-2.885-8.433c-1.924-1.923-4.734-2.885-8.432-2.885c-3.699,0-6.51,0.962-8.434,2.885
		c-1.922,1.923-2.885,4.734-2.885,8.433s0.963,6.51,2.885,8.432c1.924,1.924,4.734,2.885,8.434,2.885
		c3.439,0,6.109-0.832,8.016-2.496c1.904-1.664,2.984-4.105,3.244-7.322L329.031,30.583z"/>
	<path d="M350.824,45.782c-3.922,0-6.973-1.33-9.152-3.994c-2.184-2.662-3.275-6.397-3.275-11.205v-14.59h3.883v14.59
		c0,1.072,0.092,2.256,0.277,3.551c0.186,1.294,0.584,2.523,1.193,3.688c0.611,1.166,1.48,2.137,2.609,2.914
		c1.125,0.775,2.615,1.164,4.465,1.164c1.848,0,3.338-0.389,4.467-1.164c1.125-0.777,1.996-1.748,2.605-2.914
		c0.611-1.164,1.008-2.394,1.193-3.688c0.186-1.295,0.277-2.479,0.277-3.551v-14.59h3.883v14.59c0,4.808-1.092,8.543-3.271,11.205
		C357.795,44.452,354.744,45.782,350.824,45.782z"/>
	<path d="M368.732,45.505V2.29h3.885v43.215H368.732z"/>
	<path d="M393.301,45.782c-4.809,0-8.543-1.33-11.207-3.994c-2.662-2.662-3.994-6.397-3.994-11.205
		c0-4.771,1.332-8.497,3.994-11.179c2.664-2.681,6.398-4.022,11.207-4.022c4.807,0,8.543,1.342,11.205,4.022
		c2.664,2.682,3.994,6.407,3.994,11.179c0,4.808-1.33,8.543-3.994,11.205C401.844,44.452,398.107,45.782,393.301,45.782z
		 M393.301,19.266c-3.699,0-6.51,0.962-8.434,2.885c-1.922,1.923-2.885,4.734-2.885,8.433s0.963,6.51,2.885,8.432
		c1.924,1.924,4.734,2.885,8.434,2.885c3.697,0,6.508-0.961,8.432-2.885c1.924-1.922,2.885-4.733,2.885-8.432
		s-0.961-6.51-2.885-8.433S396.998,19.266,393.301,19.266z"/>
</g>
</svg>
